# AST/ASF file generated using VICON BodyLanguage
# -----------------------------------------------
:version 1.10
:name VICON
:units
  mass 1.0
  length 0.45
  angle deg
:documentation
   .ast/.asf automatically generated from VICON data using
   VICON BodyBuilder and BodyLanguage model FoxedUp or BRILLIANT.MOD
:root
   order TX TY TZ RX RY RZ
   axis XYZ
   position 0 0 0  
   orientation 0 0 0 
:bonedata
  begin
     id 1 
     name lhipjoint
     direction 0.677091 -0.635792 0.370561 
     length 2.74323 
     axis 0 0 0  XYZ
  end
  begin
     id 2 
     name lfemur
     direction 0.34202 -0.939693 0  
     length 7.44995  
     axis 0 0 20  XYZ
    dof rx ry rz
    limits (-160.0 20.0)
           (-70.0 70.0)
           (-60.0 70.0)
  end
  begin
     id 3 
     name ltibia
     direction 0.34202 -0.939693 0   
     length 7.34467   
     axis 0 0 20   XYZ
    dof rx
    limits (-10.0 170.0)
  end
  begin
     id 4 
     name lfoot
     direction 0.101953 -0.280114 0.954537   
     length 1.72105   
     axis -90 7.62852e-016 20   XYZ
    dof rx rz
    limits (-45.0 90.0)
           (-70.0 20.0)
  end
  begin
     id 5 
     name ltoes
     direction 1.53537e-011 -4.21915e-011 1   
     length 0.865872   
     axis -90 7.62852e-016 20   XYZ
    dof rx
    limits (-90.0 20.0)
  end
  begin
     id 6 
     name rhipjoint
     direction -0.695735 -0.620586 0.361699   
     length 2.81045  
     axis 0 0 0  XYZ 
  end
  begin
     id 7 
     name rfemur
     direction -0.34202 -0.939693 0   
     length 7.29387   
     axis 0 0 -20   XYZ
    dof rx ry rz
    limits (-160.0 20.0)
           (-70.0 70.0)
           (-70.0 60.0)
  end
  begin
     id 8 
     name rtibia
     direction -0.34202 -0.939693 0   
     length 7.44935   
     axis 0 0 -20   XYZ
    dof rx
    limits (-10.0 170.0)
 end
 begin
     id 9 
     name rfoot
     direction -0.104163 -0.286184 0.952496   
     length 1.77731  
     axis -90 -7.62852e-016 -20   XYZ
    dof rx rz
    limits (-45.0 90.0)
           (-20.0 70.0)
  end
  begin
     id 10 
     name rtoes
     direction -1.5355e-011 -4.21888e-011 1   
     length 0.892424   
     axis -90 -7.62852e-016 -20   XYZ
    dof rx
    limits (-90.0 20.0)
  end
  begin
     id 11 
     name lowerback
     direction 0.0100202 0.997226 -0.0737589   
     length 2.16892   
     axis 0 0 0   XYZ
    dof rx ry rz
    limits (-20.0 45.0)
           (-30.0 30.0)
           (-30.0 30.0)
  end
  begin
     id 12 
     name upperback
     direction 0.00432398 0.999988 -0.00215019   
     length 2.17326   
     axis 0 0 0   XYZ
    dof rx ry rz
    limits (-20.0 45.0)
           (-30.0 30.0)
           (-30.0 30.0)
  end
  begin
     id 13 
     name thorax
     direction -0.00195047 0.999485 0.0320434   
     length 2.18139   
     axis 0 0 0   XYZ
    dof rx ry rz
    limits (-20.0 45.0)
           (-30.0 30.0)
           (-30.0 30.0)
  end
  begin
     id 14 
     name lowerneck
     direction 0.00782762 0.986241 0.165128   
     length 1.88415   
     axis 0 0 0   XYZ
    dof rx ry rz
    limits (-20.0 45.0)
           (-30.0 30.0)
           (-30.0 30.0)
  end
  begin
     id 15 
     name upperneck
     direction 0.00988667 0.981098 -0.193258   
     length 1.9242   
     axis 0 0 0   XYZ
    dof rx ry rz
    limits (-20.0 45.0)
           (-30.0 30.0)
           (-30.0 30.0)
  end
  begin
     id 16
     name head
     direction 0.00252199 0.996513 -0.0833958  
     length 1.93887  
     axis 0 0 0   XYZ
    dof rx ry rz
    limits (-20.0 45.0)
           (-30.0 30.0)
           (-30.0 30.0)
  end
  begin
     id 17 
     name lclavicle
     direction 0.929492 0.368193 -0.0218667  
     length 3.5955  
     axis 0 0 0   XYZ
    dof ry rz
    limits (-20.0 10.0)
           (0.0 20.0)
  end
  begin
     id 18 
     name lhumerus
     direction 1 -4.48972e-011 1.41911e-027   
     length 5.2795   
     axis 180 -30 -90   XYZ
    dof rx ry rz
    limits (-60.0 90.0)
           (-90.0 90.0)
           (-90.0 90.0)
  end
  begin
     id 19
     name lradius
     direction 1 -4.48963e-011 7.05772e-027   
     length 3.53504   
     axis 180 -30 -90   XYZ
    dof rx
    limits (-10.0 170.0)
  end
  begin
     id 20
     name lwrist
     direction 1 -4.48957e-011 9.54866e-027   
     length 1.76752   
     axis -7.69462e-015 90 90   XYZ
    dof ry
    limits (-180.0 0.0)
 end
  begin
     id 21 
     name lhand
     direction 1 -4.48979e-011 1.90973e-026   
     length 0.667948   
     axis -1.21857e-014 90 90   XYZ
    dof rx rz
    limits (-90.0 90.0)
           (-45.0 45.0)
  end
  begin
     id 22 
     name lfingers
     direction 1 -4.48987e-011 3.81946e-026   
     length 0.538517   
     axis -2.43714e-014 90 90   XYZ
    dof rx
    limits (0.0 90.0)
  end
  begin
     id 23
     name lthumb
     direction 0.707107 -6.34962e-011 0.707107   
     length 0.773206   
     axis -90 45 2.85299e-015   XYZ
    dof rx rz
    limits (-45.0 45.0)
           (-45.0 45.0)
  end
  begin
     id 24 
     name rclavicle
     direction -0.898763 0.414256 -0.143584   
     length 3.5176  
     axis 0 0 0   XYZ 
    dof ry rz
    limits (-10.0 20.0)
           (-20.0 0.0)
  end
  begin
     id 25 
     name rhumerus
     direction -1 -4.48971e-011 1.129e-027  
     length 5.25035   
     axis 180 30 90   XYZ
    dof rx ry rz
    limits (-90.0 60.0)
           (-90.0 90.0)
           (-90.0 90.0)
  end
  begin
     id 26 
     name rradius
     direction -1 -4.48955e-011 6.34664e-027   
     length 3.58884   
     axis 180 30 90   XYZ
    dof rx
    limits (-10.0 170.0)
  end
  begin
     id 27 
     name rwrist
     direction -1 -4.48966e-011 9.54866e-027   
     length 1.79442   
     axis -7.69462e-015 -90 -90   XYZ
    dof ry
    limits (-180.0 0.0)
  end
  begin
     id 28
     name rhand
     direction -1 -4.48973e-011 1.90973e-026   
     length 0.779235   
     axis -1.21857e-014 -90 -90   XYZ
    dof rx rz
    limits (-90.0 90.0)
           (-45.0 45.0)
  end
  begin
     id 29
     name rfingers
     direction -1 -4.48984e-011 3.81946e-026   
     length 0.62824   
     axis -2.43714e-014 -90 -90   XYZ
    dof rx
    limits (0.0 90.0)
  end
  begin
     id 30
     name rthumb
     direction -0.707107 -6.34968e-011 0.707107   
     length 0.90203   
     axis -90 -45 -2.85299e-015   XYZ
    dof rx rz
    limits (-45.0 45.0)
           (-45.0 45.0)
  end
:hierarchy
  begin
    root lhipjoint rhipjoint lowerback
    lhipjoint lfemur
    lfemur ltibia
    ltibia lfoot
    lfoot ltoes
    rhipjoint rfemur
    rfemur rtibia
    rtibia rfoot
    rfoot rtoes
    lowerback upperback
    upperback thorax
    thorax lowerneck lclavicle rclavicle
    lowerneck upperneck
    upperneck head
    lclavicle lhumerus
    lhumerus lradius
    lradius lwrist
    lwrist lhand lthumb
    lhand lfingers
    rclavicle rhumerus
    rhumerus rradius
    rradius rwrist
    rwrist rhand rthumb
    rhand rfingers
  end

#!OML:ASF I:\Random Stuff\random\construction\7_22_03\Session 2\subj1.ASF
:FULLY-SPECIFIED
:DEGREES
91
root 6.37148 17.5756 -12.7244 2.84743 3.45706 -2.52216
lowerback 3.43375 1.91753 1.66276
upperback -2.70961 2.62673 -0.690684
thorax -4.61657 1.23869 -1.83702
lowerneck -21.406 -6.78252 -6.98779
upperneck 32.4071 -10.2393 7.6314
head 15.9094 -4.07856 2.3955
rclavicle 2.82088e-014 3.57812e-015
rhumerus -33.1574 2.51678 -86.7547
rradius 24.3643
rwrist 2.59657
rhand -17.5538 19.5353
rfingers 7.12502
rthumb 8.7009 -10.2654
lclavicle 2.82088e-014 3.57812e-015
lhumerus -36.3853 -12.0897 90.5819
lradius 31.2736
lwrist 26.8761
lhand -17.5562 58.5507
lfingers 7.12502
lthumb -171.301 -91.6485
rfemur 3.96193 -1.2462 21.8925
rtibia -2.70347e-014
rfoot -8.94321 -23.244
rtoes 23.5557
lfemur -11.7679 -17.4636 -14.8123
ltibia 23.0914
lfoot -14.7852 20.6384
ltoes -25.8143
92
root 6.37158 17.5771 -12.7275 2.90629 3.45771 -2.55013
lowerback 3.44318 1.83656 1.38753
upperback -2.68572 2.50621 -0.618272
thorax -4.61654 1.18915 -1.59971
lowerneck -21.0651 -7.44905 -7.51049
upperneck 32.8266 -11.4455 8.44743
head 16.2829 -4.53267 2.59568
rclavicle -1.15171e-014 7.95139e-016
rhumerus -33.0468 2.82025 -86.7431
rradius 24.3556
rwrist 2.64062
rhand -17.5252 19.5543
rfingers 7.12502
rthumb 8.72851 -10.2453
lclavicle -1.15171e-014 7.95139e-016
lhumerus -36.3963 -11.6392 90.491
lradius 31.3163
lwrist 26.9371
lhand -17.844 58.3764
lfingers 7.12502
lthumb -171.579 -91.8115
rfemur 3.85861 -1.24213 21.9332
rtibia 1.27222e-014
rfoot -8.68881 -23.3329
rtoes 22.4171
lfemur -11.8686 -17.7298 -14.7511
ltibia 23.1512
lfoot -14.8977 20.8563
ltoes -25.4011
93
root 6.37362 17.5803 -12.7305 3.00087 3.46449 -2.58921
lowerback 3.42016 1.77273 1.12796
upperback -2.6688 2.40957 -0.536637
thorax -4.60304 1.15122 -1.36223
lowerneck -20.6516 -8.09241 -8.04193
upperneck 33.2139 -12.6243 9.23358
head 16.651 -4.98276 2.7915
rclavicle -1.49151e-014 2.14687e-014
rhumerus -32.9363 3.03997 -86.6618
rradius 24.3759
rwrist 2.67505
rhand -17.5972 19.5697
rfingers 7.12502
rthumb 8.65904 -10.2327
lclavicle -1.49151e-014 2.14687e-014
lhumerus -36.3899 -11.2245 90.4048
lradius 31.309
lwrist 26.6825
lhand -17.9577 58.2187
lfingers 7.12502
lthumb -171.689 -91.9648
rfemur 3.71086 -1.24206 21.982
rtibia 1.98785e-014
rfoot -8.32236 -23.4266
rtoes 21.1278
lfemur -11.9862 -17.9097 -14.6788
ltibia 23.1596
lfoot -14.9209 21.0423
ltoes -25.3517
94
root 6.37497 17.5846 -12.7348 3.11264 3.47094 -2.63994
lowerback 3.37424 1.69625 0.86759
upperback -2.62753 2.29631 -0.444338
thorax -4.551 1.1056 -1.11082
lowerneck -20.2394 -8.66464 -8.56128
upperneck 33.5402 -13.7062 10.0073
head 17.0052 -5.39445 3.00023
rclavicle -2.33075e-014 4.37326e-015
rhumerus -32.7273 3.22897 -86.5552
rradius 24.3842
rwrist 2.69652
rhand -17.7541 20.4845
rfingers 7.12502
rthumb 8.50762 -9.32409
lclavicle -2.33075e-014 4.37326e-015
lhumerus -36.3548 -10.8132 90.3258
lradius 31.313
lwrist 26.3569
lhand -17.1805 58.3485
lfingers 7.12502
lthumb -170.939 -91.8662
rfemur 3.53725 -1.24 22.0427
rtibia 1.19271e-014
rfoot -7.99072 -23.4855
rtoes 19.9874
lfemur -12.1159 -18.0055 -14.587
ltibia 23.123
lfoot -14.86 21.1742
ltoes -25.4386
95
root 6.37479 17.5879 -12.7403 3.2302 3.47908 -2.63157
lowerback 3.30947 1.57886 0.542065
upperback -2.55494 2.12395 -0.376612
thorax -4.45685 1.03236 -0.843125
lowerneck -19.8759 -9.1639 -9.05522
upperneck 33.7825 -14.7165 10.8477
head 17.354 -5.76553 3.24799
rclavicle 1.34956e-015 3.57812e-015
rhumerus -32.3454 3.29869 -86.4483
rradius 24.2758
rwrist 2.78732
rhand -17.8849 23.0126
rfingers 7.12502
rthumb 8.38138 -6.80115
lclavicle 1.34956e-015 3.57812e-015
lhumerus -36.4375 -10.7188 90.4196
lradius 31.5007
lwrist 26.9961
lhand -16.8658 58.5425
lfingers 7.12502
lthumb -170.635 -91.6856
rfemur 3.36146 -1.24269 22.0407
rtibia -4.77083e-015
rfoot -7.7689 -23.5312
rtoes 19.0922
lfemur -12.2444 -18.2329 -14.5511
ltibia 23.0697
lfoot -14.798 21.4146
ltoes -25.4951
96
root 6.37518 17.5916 -12.7456 3.33369 3.49344 -2.62593
lowerback 3.29816 1.45288 0.249957
upperback -2.5022 1.9418 -0.330351
thorax -4.40981 0.952021 -0.617954
lowerneck -19.4987 -9.61548 -9.45976
upperneck 34.0463 -15.6576 11.5642
head 17.7023 -6.11471 3.44332
rclavicle 7.68116e-015 1.98785e-015
rhumerus -31.997 3.14568 -86.2995
rradius 24.1568
rwrist 2.93833
rhand -17.6184 23.6246
rfingers 7.12502
rthumb 8.63859 -6.17864
lclavicle 7.68116e-015 1.98785e-015
lhumerus -36.6286 -10.7966 90.5206
lradius 31.7552
lwrist 27.6613
lhand -16.8046 58.634
lfingers 7.12502
lthumb -170.576 -91.5967
rfemur 3.19738 -1.25188 22.0417
rtibia 1.66979e-014
rfoot -7.53317 -23.5818
rtoes 18.4564
lfemur -12.3494 -18.5653 -14.5127
ltibia 23.0129
lfoot -14.8305 21.7155
ltoes -25.229
97
root 6.37645 17.5957 -12.7498 3.39206 3.50121 -2.63046
lowerback 3.3739 1.34587 -0.0160536
upperback -2.45597 1.78709 -0.269017
thorax -4.41652 0.884286 -0.396313
lowerneck -19.1052 -10.021 -9.81263
upperneck 34.3572 -16.4614 12.0282
head 18.0277 -6.43511 3.54962
rclavicle -1.00278e-014 2.3059e-014
rhumerus -31.7762 3.05817 -86.1704
rradius 24.2176
rwrist 2.97214
rhand -17.3552 24.1837
rfingers 7.12502
rthumb 8.89261 -5.60895
lclavicle -1.00278e-014 2.3059e-014
lhumerus -36.8303 -10.8209 90.5838
lradius 31.9933
lwrist 27.7434
lhand -17.0104 58.6641
lfingers 7.12502
lthumb -170.775 -91.5577
rfemur 3.08068 -1.25559 22.0498
rtibia -1.35174e-014
rfoot -7.19871 -23.6306
rtoes 17.6074
lfemur -12.409 -18.8215 -14.4849
ltibia 22.9835
lfoot -14.8657 21.9255
ltoes -24.8514
98
root 6.37703 17.5998 -12.7564 3.47802 3.51433 -2.65444
lowerback 3.46448 1.22165 -0.265802
upperback -2.42311 1.61115 -0.176734
thorax -4.44433 0.805937 -0.150524
lowerneck -18.7552 -10.3758 -10.1654
upperneck 34.7038 -17.1413 12.3563
head 18.3573 -6.72066 3.62299
rclavicle -3.00507e-014 -1.11319e-014
rhumerus -31.5944 3.18135 -86.1012
rradius 24.3976
rwrist 2.94258
rhand -17.2088 24.2999
rfingers 7.12502
rthumb 9.03389 -5.48665
lclavicle -3.00507e-014 -1.11319e-014
lhumerus -37.0541 -10.9225 90.7254
lradius 32.1969
lwrist 27.9584
lhand -17.9291 58.6438
lfingers 7.12502
lthumb -171.661 -91.5408
rfemur 2.93337 -1.26221 22.0846
rtibia 7.15625e-015
rfoot -6.80833 -23.6665
rtoes 16.1287
lfemur -12.5531 -18.7008 -14.4229
ltibia 23.0115
lfoot -14.8021 21.826
ltoes -24.995
99
root 6.37787 17.6018 -12.7666 3.59545 3.55553 -2.74384
lowerback 3.5732 1.08568 -0.396154
upperback -2.41309 1.42536 -0.0913128
thorax -4.50094 0.718977 0.0219224
lowerneck -18.43 -10.7207 -10.4862
upperneck 35.0503 -17.8187 12.664
head 18.7007 -7.00233 3.68071
rclavicle -1.2424e-015 -1.19271e-015
rhumerus -31.4357 3.26397 -86.0654
rradius 24.5826
rwrist 2.91753
rhand -17.2503 24.3495
rfingers 7.12502
rthumb 8.99386 -5.43878
lclavicle -1.2424e-015 -1.19271e-015
lhumerus -37.2017 -10.8617 90.7198
lradius 32.189
lwrist 27.6578
lhand -18.0761 58.4805
lfingers 7.12502
lthumb -171.803 -91.6985
rfemur 2.72468 -1.28989 22.2164
rtibia 7.95139e-015
rfoot -6.26631 -23.7968
rtoes 13.8934
lfemur -12.7782 -18.3558 -14.2608
ltibia 23.0624
lfoot -14.805 21.4698
ltoes -24.8815
100
root 6.38113 17.6027 -12.7752 3.6728 3.54369 -2.90055
lowerback 3.69065 0.984439 -0.401383
upperback -2.36731 1.29224 -0.0198859
thorax -4.52119 0.654071 0.106783
lowerneck -18.0637 -11.0395 -10.8253
upperneck 35.2463 -18.4747 13.0756
head 18.9774 -7.27178 3.7907
rclavicle -1.22812e-014 1.15295e-014
rhumerus -31.291 3.36582 -86.0937
rradius 24.8643
rwrist 2.67773
rhand -17.3994 24.3552
rfingers 7.12502
rthumb 8.84993 -5.43926
lclavicle -1.22812e-014 1.15295e-014
lhumerus -37.2225 -10.5922 90.5235
lradius 32.0457
lwrist 26.6565
lhand -17.1304 58.2218
lfingers 7.12502
lthumb -170.89 -91.995
rfemur 2.54575 -1.26104 22.4092
rtibia 1.66979e-014
rfoot -5.76922 -23.9398
rtoes 11.8113
lfemur -12.9276 -18.3096 -14.0441
ltibia 23.0961
lfoot -14.9039 21.3658
ltoes -24.227
